# xmcd
#
# Track frame offsets:
#	150
#	19722
#	37071
#	58378
#	77005
#	92891
#	116975
#	133524
#	148066
#	163144
#	176252
#
# Disc length: 2857 seconds
#
# Revision: 1
# Processed by: cddbd v1.5.1PL0 Copyright (c) Steve Scherf et al.
# Submitted via: audiograbber 1.83.01
#
DISCID=9c0b270b
DTITLE=M.A. Rose - M.A. Rose
DYEAR=2001
DGENRE=Rock
TTITLE0=Pretty People
TTITLE1=Now You Know
TTITLE2=Waiting for the Next Big Thing
TTITLE3=Ten Foot Pole
TTITLE4=I'm a Man
TTITLE5=Are You Ready?
TTITLE6=At the Movies
TTITLE7=Existentialist and His Harley
TTITLE8=Girl with a Moustache
TTITLE9=Great Discoveries
TTITLE10=So You Wanna Be Free
EXTD=
EXTT0=
EXTT1=
EXTT2=
EXTT3=
EXTT4=
EXTT5=
EXTT6=
EXTT7=
EXTT8=
EXTT9=
EXTT10=
PLAYORDER=
